<svg width="22" height="22" viewBox="0 0 22 22" fill="none" xmlns="http://www.w3.org/2000/svg">
<g clip-path="url(#clip0_2204_226)">
<mask id="mask0_2204_226" style="mask-type:luminance" maskUnits="userSpaceOnUse" x="0" y="0" width="22" height="22">
<path fill-rule="evenodd" clip-rule="evenodd" d="M0 0H22V22H0V0Z" fill="white"/>
</mask>
<g mask="url(#mask0_2204_226)">
<path fill-rule="evenodd" clip-rule="evenodd" d="M8.24675 1.82999H3.66341C2.65089 1.82999 1.83008 2.6508 1.83008 3.66332V10.08C1.83008 11.0925 2.65089 11.9133 3.66341 11.9133H8.24675C9.25927 11.9133 10.0801 11.0925 10.0801 10.08V3.66332C10.0801 2.6508 9.25927 1.82999 8.24675 1.82999Z" fill="#0077B6"/>
<path fill-rule="evenodd" clip-rule="evenodd" d="M18.3368 1.82999H13.7535C12.741 1.82999 11.9202 2.6508 11.9202 3.66332V6.41332C11.9202 7.42585 12.741 8.24666 13.7535 8.24666H18.3368C19.3494 8.24666 20.1702 7.42585 20.1702 6.41332V3.66332C20.1702 2.6508 19.3494 1.82999 18.3368 1.82999Z" fill="#0077B6"/>
<path fill-rule="evenodd" clip-rule="evenodd" d="M8.24675 13.75H3.66341C2.65089 13.75 1.83008 14.5708 1.83008 15.5833V18.3333C1.83008 19.3459 2.65089 20.1667 3.66341 20.1667H8.24675C9.25927 20.1667 10.0801 19.3459 10.0801 18.3333V15.5833C10.0801 14.5708 9.25927 13.75 8.24675 13.75Z" fill="#0077B6"/>
<path fill-rule="evenodd" clip-rule="evenodd" d="M18.3368 10.08H13.7535C12.741 10.08 11.9202 10.9008 11.9202 11.9133V18.33C11.9202 19.3425 12.741 20.1633 13.7535 20.1633H18.3368C19.3494 20.1633 20.1702 19.3425 20.1702 18.33V11.9133C20.1702 10.9008 19.3494 10.08 18.3368 10.08Z" fill="#0077B6"/>
</g>
</g>
<defs>
<clipPath id="clip0_2204_226">
<rect width="22" height="22" fill="white"/>
</clipPath>
</defs>
</svg>
