<svg width="20" height="20" viewBox="0 0 20 20" fill="none" xmlns="http://www.w3.org/2000/svg">
<path d="M10 9.66184C8.625 9.66184 7.5 9.21095 6.625 8.30918C5.75 7.40741 5.3125 6.24799 5.3125 4.83092C5.3125 3.41385 5.75 2.25443 6.625 1.35266C7.5 0.450886 8.625 0 10 0C11.375 0 12.5 0.450886 13.375 1.35266C14.25 2.25443 14.6875 3.41385 14.6875 4.83092C14.6875 6.24799 14.25 7.40741 13.375 8.30918C12.5 9.21095 11.375 9.66184 10 9.66184ZM0 20V16.9726C0 16.1567 0.197917 15.4589 0.59375 14.8792C0.989583 14.2995 1.5 13.8594 2.125 13.5588C3.52083 12.9147 4.85938 12.4316 6.14062 12.1095C7.42188 11.7874 8.70833 11.6264 10 11.6264C11.2917 11.6264 12.5729 11.7928 13.8438 12.1256C15.1146 12.4584 16.4471 12.9382 17.8413 13.565C18.4934 13.8683 19.0162 14.3081 19.4097 14.8844C19.8032 15.4607 20 16.1567 20 16.9726V20H0ZM1.875 18.0676H18.125V16.9726C18.125 16.6291 18.026 16.3017 17.8281 15.9903C17.6302 15.679 17.3854 15.4482 17.0938 15.2979C15.7604 14.6323 14.5417 14.1761 13.4375 13.9291C12.3333 13.6822 11.1875 13.5588 10 13.5588C8.8125 13.5588 7.65625 13.6822 6.53125 13.9291C5.40625 14.1761 4.1875 14.6323 2.875 15.2979C2.58333 15.4482 2.34375 15.679 2.15625 15.9903C1.96875 16.3017 1.875 16.6291 1.875 16.9726V18.0676ZM10 7.72947C10.8125 7.72947 11.4844 7.45572 12.0156 6.90821C12.5469 6.36071 12.8125 5.66828 12.8125 4.83092C12.8125 3.99356 12.5469 3.30113 12.0156 2.75362C11.4844 2.20612 10.8125 1.93237 10 1.93237C9.1875 1.93237 8.51562 2.20612 7.98438 2.75362C7.45312 3.30113 7.1875 3.99356 7.1875 4.83092C7.1875 5.66828 7.45312 6.36071 7.98438 6.90821C8.51562 7.45572 9.1875 7.72947 10 7.72947Z" fill="#CCCCCC"/>
</svg>
