<svg width="40" height="40" viewBox="0 0 40 40" fill="none" xmlns="http://www.w3.org/2000/svg">
<path d="M20 19.3237C17.25 19.3237 15 18.4219 13.25 16.6184C11.5 14.8148 10.625 12.496 10.625 9.66184C10.625 6.8277 11.5 4.50886 13.25 2.70531C15 0.901771 17.25 0 20 0C22.75 0 25 0.901771 26.75 2.70531C28.5 4.50886 29.375 6.8277 29.375 9.66184C29.375 12.496 28.5 14.8148 26.75 16.6184C25 18.4219 22.75 19.3237 20 19.3237ZM0 40V33.9452C0 32.3135 0.395833 30.9179 1.1875 29.7585C1.97917 28.599 3 27.7187 4.25 27.1176C7.04167 25.8293 9.71875 24.8631 12.2812 24.219C14.8438 23.5749 17.4167 23.2528 20 23.2528C22.5833 23.2528 25.1458 23.5856 27.6875 24.2512C30.2292 24.9168 32.8942 25.8764 35.6826 27.13C36.9868 27.7366 38.0324 28.6162 38.8194 29.7688C39.6065 30.9213 40 32.3135 40 33.9452V40H0ZM3.75 36.1353H36.25V33.9452C36.25 33.2582 36.0521 32.6033 35.6562 31.9807C35.2604 31.358 34.7708 30.8964 34.1875 30.5958C31.5208 29.2646 29.0833 28.3521 26.875 27.8583C24.6667 27.3645 22.375 27.1176 20 27.1176C17.625 27.1176 15.3125 27.3645 13.0625 27.8583C10.8125 28.3521 8.375 29.2646 5.75 30.5958C5.16667 30.8964 4.6875 31.358 4.3125 31.9807C3.9375 32.6033 3.75 33.2582 3.75 33.9452V36.1353ZM20 15.4589C21.625 15.4589 22.9688 14.9114 24.0312 13.8164C25.0938 12.7214 25.625 11.3366 25.625 9.66184C25.625 7.98712 25.0938 6.60225 24.0312 5.50725C22.9688 4.41224 21.625 3.86473 20 3.86473C18.375 3.86473 17.0312 4.41224 15.9688 5.50725C14.9062 6.60225 14.375 7.98712 14.375 9.66184C14.375 11.3366 14.9062 12.7214 15.9688 13.8164C17.0312 14.9114 18.375 15.4589 20 15.4589Z" fill="white"/>
</svg>
